<svg id="laptop" xmlns="http://www.w3.org/2000/svg" width="48" height="48" viewBox="0 0 48 48">
  <defs>
    <style>
      .vi-primary {
        fill: #78a5ce;
      }

      .vi-secondary {
        fill: #78ceae;
      }

      .vi-accent {
        fill: #161616;
      }
    </style>
  </defs>
  <path class="vi-primary" d="M43,36H5V9H43V36ZM31,43H17V41H31v2Z"/>
  <path class="vi-accent" d="M8,33V12H40V33H8Zm11,3H29v3l2,2H17l2-2V36Z"/>
  <g transform="translate(20.000000, 17.000000) scale(0.3, 0.3)">
    <path class="vi-secondary" d="M22.957,30.769 C19.657,30.769 16.982,28.141 16.982,24.898 C16.982,21.656 19.657,19.028 22.957,19.028 C23.393,19.028 23.818,19.076 24.228,19.164 L24.228,7.408 L28.931,6.047 L28.931,24.898 C28.931,28.141 26.256,30.769 22.957,30.769 Z M6.94,35 C3.64,35 0.965,32.372 0.965,29.13 C0.965,25.887 3.64,23.259 6.94,23.259 C7.376,23.259 7.801,23.308 8.211,23.395 L8.211,12.043 L12.914,10.682 L12.914,29.208 L12.91,29.208 C12.867,32.414 10.213,35 6.94,35 Z"></path>
    <polygon class="vi-secondary" points="28.931 6.047 28.931 5.912 28.931 0.999 8.211 6.995 8.211 10.221 8.211 12.043"></polygon>
  </g>
  
</svg>